<?xml version="1.0" encoding="UTF-8" standalone="no"?>
<svg
   width="12"
   height="12"
   version="1.1"
   id="svg8"
   sodipodi:docname="lock.svg"
   inkscape:version="1.1.2 (0a00cf5339, 2022-02-04)"
   xmlns:inkscape="http://www.inkscape.org/namespaces/inkscape"
   xmlns:sodipodi="http://sodipodi.sourceforge.net/DTD/sodipodi-0.dtd"
   xmlns="http://www.w3.org/2000/svg"
   xmlns:svg="http://www.w3.org/2000/svg">
  <defs
     id="defs12" />
  <sodipodi:namedview
     id="namedview10"
     pagecolor="#ffffff"
     bordercolor="#000000"
     borderopacity="0.25"
     inkscape:pageshadow="2"
     inkscape:pageopacity="0.0"
     inkscape:pagecheckerboard="0"
     showgrid="false"
     inkscape:zoom="64.583333"
     inkscape:cx="6"
     inkscape:cy="6.0077419"
     inkscape:window-width="1920"
     inkscape:window-height="976"
     inkscape:window-x="0"
     inkscape:window-y="30"
     inkscape:window-maximized="1"
     inkscape:current-layer="svg8" />
  <g
     id="g1044">
    <rect
       style="opacity:0"
       width="12"
       height="12"
       x="0"
       y="0"
       id="rect2" />
    <path
       d="M 6.0139811,0 C 4.2439757,0 2.8190255,1.4249501 2.8190255,3.1949555 v 1.5974778 c -0.8850027,0 -1.5974778,0.7124751 -1.5974778,1.5974774 v 3.9936943 c 0,0.885003 0.7124751,1.597479 1.5974778,1.597479 h 6.3899108 c 0.8850037,0 1.5974777,-0.712476 1.5974777,-1.597479 V 6.3899107 c 0,-0.8850023 -0.712474,-1.5974774 -1.5974777,-1.5974774 V 3.1949555 C 9.2089363,1.4249501 7.7839865,0 6.0139811,0 Z m 0,1.5974777 c 0.8850027,0 1.5974778,0.7124751 1.5974778,1.5974778 V 4.7924333 H 4.4165033 V 3.1949555 c 0,-0.8850027 0.7124751,-1.5974778 1.5974778,-1.5974778 z M 2.8190255,6.3899107 H 9.2089363 V 10.383605 H 2.8190255 Z"
       fill="#aaaaaa"
       id="path933"
       style="stroke-width:0.798739;fill:#eff0f1;fill-opacity:1" />
  </g>
</svg>
