<?xml version="1.0" encoding="UTF-8" standalone="no"?>
<svg
   width="16"
   height="16"
   version="1.1"
   id="svg8"
   sodipodi:docname="minus_up.svg"
   inkscape:version="1.1.2 (0a00cf5339, 2022-02-04)"
   xmlns:inkscape="http://www.inkscape.org/namespaces/inkscape"
   xmlns:sodipodi="http://sodipodi.sourceforge.net/DTD/sodipodi-0.dtd"
   xmlns="http://www.w3.org/2000/svg"
   xmlns:svg="http://www.w3.org/2000/svg">
  <defs
     id="defs12" />
  <sodipodi:namedview
     id="namedview10"
     pagecolor="#ffffff"
     bordercolor="#000000"
     borderopacity="0.25"
     inkscape:pageshadow="2"
     inkscape:pageopacity="0.0"
     inkscape:pagecheckerboard="0"
     showgrid="false"
     inkscape:zoom="48.4375"
     inkscape:cx="8"
     inkscape:cy="7.9896774"
     inkscape:window-width="1920"
     inkscape:window-height="976"
     inkscape:window-x="0"
     inkscape:window-y="30"
     inkscape:window-maximized="1"
     inkscape:current-layer="svg8" />
  <g
     id="g850">
    <rect
       style="fill:#141a21;fill-opacity:1"
       width="16"
       height="16"
       x="0"
       y="0"
       id="rect2" />
  </g>
  <path
     style="fill:#898b8c"
     d="M 8,0 A 8,8 0 0 0 0,8 8,8 0 0 0 8,16 8,8 0 0 0 16,8 8,8 0 0 0 8,0 M 4.707,4 8,7.294 11.293,4.001 12,4.708 8.707,8.001 12,11.294 11.293,12.001 8,8.708 4.707,12.001 4,11.294 7.293,8.001 4,4.708 4.707,4.001"
     id="path4" />
</svg>
