<?xml version="1.0" encoding="UTF-8" standalone="no"?>
<svg
   width="29"
   height="12"
   version="1.1"
   id="svg8"
   sodipodi:docname="plus_over.svg"
   inkscape:version="1.1.2 (0a00cf5339, 2022-02-04)"
   xmlns:inkscape="http://www.inkscape.org/namespaces/inkscape"
   xmlns:sodipodi="http://sodipodi.sourceforge.net/DTD/sodipodi-0.dtd"
   xmlns="http://www.w3.org/2000/svg"
   xmlns:svg="http://www.w3.org/2000/svg">
  <defs
     id="defs12" />
  <sodipodi:namedview
     id="namedview10"
     pagecolor="#ffffff"
     bordercolor="#000000"
     borderopacity="0.25"
     inkscape:pageshadow="2"
     inkscape:pageopacity="0.0"
     inkscape:pagecheckerboard="0"
     showgrid="false"
     inkscape:zoom="42.862069"
     inkscape:cx="14.5"
     inkscape:cy="5.9959775"
     inkscape:window-width="1920"
     inkscape:window-height="976"
     inkscape:window-x="0"
     inkscape:window-y="30"
     inkscape:window-maximized="1"
     inkscape:current-layer="svg8" />
  <rect
     style="fill:#141a21;fill-opacity:1"
     width="29"
     height="12"
     x="0"
     y="0"
     id="rect2" />
  <path
     style="fill:#ffffff;opacity:0.1"
     d="M 10.101562 1 C 8.9476615 1 8 1.9476611 8 3.1015625 L 8 9.8984375 C 8 11.052339 8.9476615 12 10.101562 12 L 13 12 L 16.898438 12 L 20.101562 12 L 24 12 L 26.898438 12 C 28.052339 12 29 11.052339 29 9.8984375 L 29 3.1015625 C 29 1.9476611 28.052338 1 26.898438 1 L 24 1 L 20.101562 1 L 16.898438 1 L 13 1 L 10.101562 1 z"
     id="path4" />
  <path
     style="fill:#eff0f1"
     d="m 23,3 h 1 v 3 h 3 v 1 h -3 v 3 H 23 V 7 H 20 V 6 h 3 z"
     id="path6" />
</svg>
