<?xml version="1.0" encoding="UTF-8" standalone="no"?>
<svg
   id="svg3642"
   width="84"
   height="84"
   version="1"
   sodipodi:docname="decoration.svg"
   inkscape:version="1.1.2 (0a00cf5339, 2022-02-04)"
   xmlns:inkscape="http://www.inkscape.org/namespaces/inkscape"
   xmlns:sodipodi="http://sodipodi.sourceforge.net/DTD/sodipodi-0.dtd"
   xmlns:xlink="http://www.w3.org/1999/xlink"
   xmlns="http://www.w3.org/2000/svg"
   xmlns:svg="http://www.w3.org/2000/svg"
   xmlns:rdf="http://www.w3.org/1999/02/22-rdf-syntax-ns#"
   xmlns:cc="http://creativecommons.org/ns#"
   xmlns:dc="http://purl.org/dc/elements/1.1/">
  <metadata
     id="metadata58">
    <rdf:RDF>
      <cc:Work
         rdf:about="">
        <dc:format>image/svg+xml</dc:format>
        <dc:type
           rdf:resource="http://purl.org/dc/dcmitype/StillImage" />
      </cc:Work>
    </rdf:RDF>
  </metadata>
  <sodipodi:namedview
     pagecolor="#ffffff"
     bordercolor="#666666"
     borderopacity="1"
     objecttolerance="10"
     gridtolerance="10"
     guidetolerance="10"
     inkscape:pageopacity="0"
     inkscape:pageshadow="2"
     inkscape:window-width="1920"
     inkscape:window-height="975"
     id="namedview56"
     showgrid="false"
     inkscape:zoom="36.854382"
     inkscape:cx="7.4075316"
     inkscape:cy="69.923842"
     inkscape:window-x="0"
     inkscape:window-y="30"
     inkscape:window-maximized="1"
     inkscape:current-layer="svg3642"
     inkscape:pagecheckerboard="0" />
  <defs
     id="defs3644">
    <linearGradient
       id="linearGradient4215-49">
      <stop
         id="stop4217-5"
         offset="0"
         style="stop-color:#000000;stop-opacity:0.184" />
      <stop
         id="stop4223-8"
         offset="1"
         style="stop-color:#000000;stop-opacity:0" />
    </linearGradient>
    <radialGradient
       id="radialGradient4275"
       cx="984"
       cy="905.362"
       r="8.5"
       fx="984"
       fy="905.362"
       gradientTransform="matrix(-1.6187099e-5,-1.4117565,1.4117775,-1.618734e-5,-1261.1539,1406.183)"
       gradientUnits="userSpaceOnUse"
       xlink:href="#linearGradient4215-49" />
    <linearGradient
       id="linearGradient4271"
       x1="83.6"
       x2="83.6"
       y1="-969.362"
       y2="-957.362"
       gradientTransform="matrix(0.71428571,0,0,1,-317.71429,1250.3622)"
       gradientUnits="userSpaceOnUse"
       xlink:href="#linearGradient4215-49" />
    <radialGradient
       id="radialGradient3382"
       cx="984"
       cy="905.362"
       r="8.5"
       fx="984"
       fy="905.362"
       gradientTransform="matrix(7.8257357e-6,1.411771,-1.4117668,7.8257123e-6,1345.1525,-1322.1898)"
       gradientUnits="userSpaceOnUse"
       xlink:href="#linearGradient4215-49" />
    <linearGradient
       id="linearGradient4259"
       x1="83.6"
       x2="83.6"
       y1="-969.362"
       y2="-957.362"
       gradientTransform="matrix(0.71428571,0,0,1,-317.71429,1250.3622)"
       gradientUnits="userSpaceOnUse"
       xlink:href="#linearGradient4215-49" />
    <linearGradient
       id="linearGradient4452"
       x1="-260"
       x2="-260"
       y1="281"
       y2="293"
       gradientUnits="userSpaceOnUse"
       xlink:href="#linearGradient4215-49" />
    <linearGradient
       id="linearGradient4283"
       x1="83.6"
       x2="83.6"
       y1="-969.362"
       y2="-957.362"
       gradientTransform="matrix(0.71428571,0,0,1,-317.71429,1250.3622)"
       gradientUnits="userSpaceOnUse"
       xlink:href="#linearGradient4215-49" />
    <radialGradient
       id="radialGradient4255"
       cx="982.909"
       cy="906.453"
       r="8.5"
       fx="982.909"
       fy="906.453"
       gradientTransform="matrix(1.4117577,5.5406049e-6,-5.5406032e-6,1.4117573,-1320.6245,-1262.6973)"
       gradientUnits="userSpaceOnUse"
       xlink:href="#linearGradient4215-49" />
    <radialGradient
       id="radialGradient4263"
       cx="984"
       cy="905.362"
       r="8.5"
       fx="984"
       fy="905.362"
       gradientTransform="matrix(-1.411767,-9.899721e-6,9.8996845e-6,-1.4117618,1406.1698,1345.1655)"
       gradientUnits="userSpaceOnUse"
       xlink:href="#linearGradient4215-49" />
  </defs>
  <rect
     style="opacity:1;fill:#090c10;fill-opacity:1;stroke:none"
     id="decoration-center"
     class="ColorScheme-Background"
     width="50"
     height="50"
     x="17"
     y="17" />
  <g
     id="decoration-left">
    <g
       id="shadow-left-3"
       transform="matrix(-1,0,0,1,298,-240)">
      <rect
         id="rect31"
         width="50"
         height="10"
         x="-307"
         y="288"
         transform="matrix(0,-1,1,0,0,0)"
         style="opacity:1;fill:url(#linearGradient4271);fill-opacity:1;stroke:none" />
      <rect
         id="rect33"
         width="7"
         height="1"
         x="278"
         y="257"
         transform="translate(3,2)"
         style="fill:#3498db;fill-opacity:0" />
    </g>
    <path
       style="color:#383c4a;opacity:1;fill:#090c10;fill-opacity:1;stroke:none"
       id="path71"
       class="ColorScheme-Background"
       d="m 10.000015,16.999925 0,50 7,10e-6 0,-50 z" />
    <path
       style="color:#383c4a;fill:#163d6c;fill-opacity:1;stroke:none;stroke-width:0.654652"
       id="path71-5"
       class="ColorScheme-Background"
       d="m 7,16.999915 v 50.000001 l 3,1e-5 V 16.999925 Z" />
  </g>
  <g
     id="decoration-right">
    <g
       id="shadow-right"
       transform="translate(-214,-240)">
      <rect
         id="rect45"
         width="50"
         height="10"
         x="-307"
         y="288"
         transform="matrix(0,-1,1,0,0,0)"
         style="opacity:1;fill:url(#linearGradient4452);fill-opacity:1;stroke:none" />
      <rect
         id="rect47"
         width="7"
         height="1"
         x="278"
         y="257"
         transform="translate(3,2)"
         style="fill:#3498db;fill-opacity:0" />
    </g>
    <path
       style="color:#383c4a;opacity:1;fill:#090c10;fill-opacity:1;stroke:none"
       id="path79"
       class="ColorScheme-Background"
       d="m 73.999995,16.999935 0,50 -7,1e-5 0,-50 z" />
    <path
       style="color:#383c4a;fill:#163d6c;fill-opacity:1;stroke:none;stroke-width:0.654651"
       id="path79-6"
       class="ColorScheme-Background"
       d="m 77,16.999925 v 50 h -3 v -49.99999 z" />
  </g>
  <g
     id="decoration-bottom">
    <g
       id="shadow-bottom"
       transform="matrix(0,1,-1,0,324,-214)">
      <rect
         id="rect39"
         width="50"
         height="10"
         x="-307"
         y="288"
         transform="matrix(0,-1,1,0,0,0)"
         style="opacity:1;fill:url(#linearGradient4259);fill-opacity:1;stroke:none" />
      <rect
         id="rect41"
         width="7"
         height="1"
         x="278"
         y="257"
         transform="translate(3,2)"
         style="fill:#3498db;fill-opacity:0" />
    </g>
    <path
       style="color:#383c4a;opacity:1;fill:#090c10;fill-opacity:1;stroke:none"
       id="path95"
       class="ColorScheme-Background"
       d="m 16.999975,74.000065 50.00002,0 0,-7 -50.00001,0 z" />
    <path
       style="color:#383c4a;fill:#163d6c;fill-opacity:1;stroke:none;stroke-width:0.654652"
       id="path95-7"
       class="ColorScheme-Background"
       d="m 16.999965,77.000065 h 50.00002 v -3 h -50.00001 z" />
  </g>
  <g
     id="decoration-top">
    <g
       id="shadow-top-6"
       transform="matrix(0,-1,-1,0,324,298)">
      <rect
         id="rect51"
         width="50"
         height="10"
         x="-307"
         y="288"
         transform="matrix(0,-1,1,0,0,0)"
         style="opacity:1;fill:url(#linearGradient4283);fill-opacity:1;stroke:none" />
      <rect
         id="rect53"
         width="7"
         height="1"
         x="278"
         y="257"
         transform="translate(3,2)"
         style="fill:#3498db;fill-opacity:0" />
    </g>
    <path
       style="color:#383c4a;opacity:1;fill:#090c10;fill-opacity:1;stroke:none"
       id="path111"
       class="ColorScheme-Background"
       d="m 16.999975,9.999935 50.00002,0 0,7 -50.00001,0 z" />
    <path
       style="color:#383c4a;fill:#163d6c;fill-opacity:1;stroke:none;stroke-width:0.654655"
       id="path111-3"
       class="ColorScheme-Background"
       d="m 17,7 h 50.00002 v 3 H 17.00001 Z" />
  </g>
  <g
     id="decoration-topleft">
    <path
       id="shadow-topleft"
       d="m 0,17 10,0 0,-2 c 0,-2.77 2.23,-5 5,-5 L 17,10 17,0 0,0 Z"
       style="opacity:1;fill:url(#radialGradient4275);fill-opacity:1;stroke:none" />
    <path
       style="color:#383c4a;opacity:1;fill:#090c10;fill-opacity:1;stroke:none"
       id="path63"
       class="ColorScheme-Background"
       d="m 17.000005,9.999935 0,7 -7,0 0,-2 c 0,-2.77 2.23,-5 5,-5 z" />
    <path
       style="color:#383c4a;fill:#163d6c;fill-opacity:1;stroke:none;stroke-width:1.14286"
       id="path63-5-3-3"
       class="ColorScheme-Background"
       d="M 17.00003,6.9999254 17.000005,9.999935 15.21403,10 c -3.097906,0 -5.214,2.33469 -5.214,5.214 l 1.5e-5,1.785925 L 7.0000454,17 c 0,0 0,0 0,-2.285714 0,-4.609229 3.6973156,-7.7143606 7.7139846,-7.7143606 z"
       sodipodi:nodetypes="ccccccssc" />
  </g>
  <g
     id="decoration-bottomleft">
    <path
       id="shadow-bottomleft"
       d="m 17,84 0,-10 -2,0 c -2.77,0 -5,-2.23 -5,-5 l 0,-2 -10,0 0,17 z"
       style="opacity:1;fill:url(#radialGradient4263);fill-opacity:1;stroke:none" />
    <path
       style="color:#383c4a;fill:#163d6c;fill-opacity:1;stroke:none;stroke-width:1.14286"
       id="path63-5-3"
       class="ColorScheme-Background"
       d="m 7,67.000015 3.00001,2.5e-5 6.5e-5,1.785975 c 0,3.097906 2.33469,5.214 5.214,5.214 L 17,74 l 7.5e-5,3 c 0,0 0,0 -2.285714,0 C 10.246026,77 7,73.320748 7,69.286015 Z"
       sodipodi:nodetypes="ccccccssc" />
    <path
       style="color:#383c4a;opacity:1;fill:#090c10;fill-opacity:1;stroke:none;stroke-width:1"
       id="path87"
       class="ColorScheme-Background"
       d="m 17.000005,74.000025 v -7 h -7 v 2 c 0,2.77 2.23,5 5,5 z" />
  </g>
  <g
     id="decoration-bottomright">
    <path
       id="shadow-bottomright"
       d="m 84,67 -10,0 0,2 c 0,2.77 -2.23,5 -5,5 l -2,0 0,10 17,0 z"
       style="opacity:1;fill:url(#radialGradient3382);fill-opacity:1;stroke:none" />
    <path
       style="color:#383c4a;opacity:1;fill:#090c10;fill-opacity:1;stroke:none"
       id="path103"
       class="ColorScheme-Background"
       d="m 66.999995,74.000025 0,-7 7,0 0,2 c 0,2.77 -2.23,5 -5,5 z" />
    <path
       style="color:#383c4a;fill:#163d6c;fill-opacity:1;stroke:none;stroke-width:1.14286"
       id="path63-5-3-3-6-7"
       class="ColorScheme-Background"
       d="m 67.00001,76.999935 2.5e-5,-3.000009 1.785975,-6.5e-5 c 3.097906,0 5.214,-2.33469 5.214,-5.214001 l -1.5e-5,-1.785925 3,-7.4e-5 v 2.285713 c 0,4.368706 -3.333719,7.714361 -7.713985,7.714361 z"
       sodipodi:nodetypes="ccccccssc" />
  </g>
  <g
     id="decoration-topright">
    <path
       id="shadow-topright"
       d="m 67,0 0,10 2,0 c 2.77,0 5,2.23 5,5 l 0,2 10,0 0,-17 z"
       style="opacity:1;fill:url(#radialGradient4255);fill-opacity:1;stroke:none" />
    <path
       style="color:#383c4a;opacity:1;fill:#090c10;fill-opacity:1;stroke:none"
       id="path119"
       class="ColorScheme-Background"
       d="m 66.999995,9.999935 0,7 7,0 0,-2 c 0,-2.77 -2.23,-5 -5,-5 z" />
    <path
       style="color:#383c4a;fill:#163d6c;fill-opacity:1;stroke:none;stroke-width:1.14286"
       id="path63-5-3-3-6"
       class="ColorScheme-Background"
       d="m 76.999995,16.99992 -3.000009,-2.5e-5 -6.5e-5,-1.785975 c 0,-3.097906 -2.33469,-5.214 -5.214001,-5.214 l -1.785925,1.5e-5 -7.4e-5,-3 c 0,0 0,0 2.285713,0 4.502892,0 7.714361,3.943995 7.714361,7.713985 z"
       sodipodi:nodetypes="ccccccssc" />
  </g>
</svg>
